# xmcd CD database file generated by Grip 3.1.4
# 
# Track frame offsets:
#       150
#       10112
#       20727
#       31585
#       40365
#       52724
#       64096
#       74034
#       91311
#       98756
#       107804
#       118238
#       129549
#       130509
# 
# Disc length: 1889 seconds
# 
# Revision: 1
# Processed by: cddbd v1.5.1PL0 Copyright (c) Steve Scherf et al.
# Submitted via: Grip 3.1.4
# 
DISCID=b7075f0e
DTITLE=The Wilders - Spring a Leak
DYEAR=2003
DGENRE=Country
TTITLE0=Jawbone
TTITLE1=Settin' the Woods on Fire
TTITLE2=Kansas City Star
TTITLE3=Oklahoma Run
TTITLE4=Too Much Water
TTITLE5=Night Train to Memphis
TTITLE6=Going Across the Sea
TTITLE7=Once More
TTITLE8=Old Leather Bonnet with a Hole in the Crown
TTITLE9=Hallelujah I'm Ready
TTITLE10=Try Doing Right
TTITLE11=Kansas City Railroad Blues
TTITLE12=Bonus - hmmm...
TTITLE13=Bonus - Sally Anne?
EXTD=
EXTT0=
EXTT1=
EXTT2=
EXTT3=
EXTT4=
EXTT5=
EXTT6=
EXTT7=
EXTT8=
EXTT9=
EXTT10=
EXTT11=
EXTT12=
EXTT13=
PLAYORDER=
